<svg
  viewBox="0 0 40 40"
  xmlns="http://www.w3.org/2000/svg">
  <g transform="translate(-67,-45.5)">
    <path
      style="fill:#000000;fill-opacity:1;stroke:#000000;stroke-width:1.36211;stroke-opacity:1"
      d="m 87.165222,47.657039 c -2.900045,0.0083 -6.265731,0.462898 -8.105965,2.979663 -1.432149,1.969762 -1.875477,4.458972 -2.038635,6.836276 -0.07512,1.773995 2.21221,2.928408 3.458187,1.568379 0.902399,-1.306175 0.525438,-3.032858 1.113627,-4.468461 0.488085,-1.618677 1.863834,-2.901605 3.541386,-3.189986 3.185811,-0.803967 7.087785,0.568676 8.3814,3.752226 0.739097,1.756348 0.252227,3.991229 -1.35754,5.095813 -1.946776,1.631339 -4.403902,2.955082 -5.339209,5.470467 -1.261846,2.711784 -2.301772,5.823815 -1.472261,8.814449 0.516639,1.489851 2.794053,1.860119 3.63647,0.460954 1.148885,-1.614401 0.135035,-3.708529 1.040247,-5.406388 1.069051,-2.191974 2.876445,-3.901768 4.226099,-5.913851 1.8588,-2.589844 3.491252,-5.799787 2.682523,-9.073348 -0.397593,-1.633889 -1.061866,-3.256038 -2.074292,-4.597136 -2.043603,-1.915507 -5.007099,-2.311705 -7.692037,-2.329057 z m 0.276469,30.877185 a 2.0072708,1.9445436 0 0 0 -2.007113,1.944585 2.0072708,1.9445436 0 0 0 2.007113,1.944584 2.0072708,1.9445436 0 0 0 2.007113,-1.944584 2.0072708,1.9445436 0 0 0 -2.007113,-1.944585 z" />
  </g>
</svg>